<svg xmlns="http://www.w3.org/2000/svg" width="202" height="174" viewBox="0 0 202 174">
  <g id="graphic" transform="translate(-510 -1968)">
    <rect id="Rectangle_3041" data-name="Rectangle 3041" width="140" height="143" rx="6" transform="translate(566 1984)" fill="#0e0b0e" opacity="0.2"/>
    <g id="Group_6695" data-name="Group 6695" transform="translate(453 -362)">
      <rect id="Rectangle_3034" data-name="Rectangle 3034" width="140" height="174" rx="4" transform="translate(103 2330)" fill="#19161a"/>
      <g id="Group_6688" data-name="Group 6688" transform="translate(2 4)">
        <rect id="line" width="1" height="19" transform="translate(161 2349)" fill="#fff" opacity="0.06"/>
        <g id="Group_6687" data-name="Group 6687" transform="translate(-0.09 -0.089)">
          <path id="Subtraction_223" data-name="Subtraction 223" d="M18,36A18,18,0,0,1,5.272,5.272,18,18,0,0,1,30.728,30.728,17.882,17.882,0,0,1,18,36ZM18,1.5A16.5,16.5,0,1,0,34.5,18,16.519,16.519,0,0,0,18,1.5Z" transform="translate(115.09 2342.089)" fill="#242228" opacity="0.4"/>
          <path id="Union_130" data-name="Union 130" d="M5.271,30.729A18,18,0,0,1,18,0a.75.75,0,0,1,0,1.5,16.5,16.5,0,1,0,0,33A16.566,16.566,0,0,0,34.5,18.239h0a.75.75,0,0,1,1.494,0h0c0,.007,0,.013,0,.02s0,.028,0,.042,0,.045,0,.067A18,18,0,0,1,5.271,30.729Z" transform="translate(115.091 2342.089)" fill="#535261"/>
        </g>
        <circle id="Ellipse_1137" data-name="Ellipse 1137" cx="7" cy="7" r="7" transform="translate(126 2353)" fill="#242228"/>
        <rect id="Rectangle_3035" data-name="Rectangle 3035" width="49" height="9" rx="4.5" transform="translate(172 2349)" fill="#242228"/>
        <rect id="Rectangle_3036" data-name="Rectangle 3036" width="20" height="9" rx="4.5" transform="translate(172 2362)" fill="#242228"/>
      </g>
      <g id="Group_6688-2" data-name="Group 6688" transform="translate(2 57)">
        <rect id="line-2" data-name="line" width="1" height="19" transform="translate(161 2349)" fill="#fff" opacity="0.06"/>
        <g id="Group_6687-2" data-name="Group 6687" transform="translate(-0.09 -0.089)">
          <path id="Subtraction_223-2" data-name="Subtraction 223" d="M18,36A18,18,0,0,1,5.272,5.272,18,18,0,0,1,30.728,30.728,17.882,17.882,0,0,1,18,36ZM18,1.5A16.5,16.5,0,1,0,34.5,18,16.519,16.519,0,0,0,18,1.5Z" transform="translate(115.09 2342.089)" fill="#242228" opacity="0.4"/>
          <path id="Union_130-2" data-name="Union 130" d="M5.271,30.729A18,18,0,0,1,18,0a.75.75,0,0,1,0,1.5,16.5,16.5,0,1,0,0,33A16.566,16.566,0,0,0,34.5,18.239h0a.75.75,0,0,1,1.494,0h0c0,.007,0,.013,0,.02s0,.028,0,.042,0,.045,0,.067A18,18,0,0,1,5.271,30.729Z" transform="translate(115.091 2342.089)" fill="#535261"/>
        </g>
        <circle id="Ellipse_1137-2" data-name="Ellipse 1137" cx="7" cy="7" r="7" transform="translate(126 2353)" fill="#242228"/>
        <rect id="Rectangle_3035-2" data-name="Rectangle 3035" width="49" height="9" rx="4.5" transform="translate(172 2349)" fill="#242228"/>
        <rect id="Rectangle_3036-2" data-name="Rectangle 3036" width="20" height="9" rx="4.5" transform="translate(172 2362)" fill="#242228"/>
      </g>
      <g id="Group_6688-3" data-name="Group 6688" transform="translate(2 100)">
        <rect id="line-3" data-name="line" width="1" height="19" transform="translate(161 2349)" fill="#fff" opacity="0.06"/>
        <g id="Group_6687-3" data-name="Group 6687" transform="translate(-0.09 -0.089)">
          <path id="Subtraction_223-3" data-name="Subtraction 223" d="M18,36A18,18,0,0,1,5.272,5.272,18,18,0,0,1,30.728,30.728,17.882,17.882,0,0,1,18,36ZM18,1.5A16.5,16.5,0,1,0,34.5,18,16.519,16.519,0,0,0,18,1.5Z" transform="translate(115.09 2342.089)" fill="#242228" opacity="0.4"/>
          <path id="Union_130-3" data-name="Union 130" d="M5.271,30.729A18,18,0,0,1,18,0a.75.75,0,0,1,0,1.5,16.5,16.5,0,1,0,0,33A16.566,16.566,0,0,0,34.5,18.239h0a.75.75,0,0,1,1.494,0h0c0,.007,0,.013,0,.02s0,.028,0,.042,0,.045,0,.067A18,18,0,0,1,5.271,30.729Z" transform="translate(115.091 2342.089)" fill="#535261"/>
        </g>
        <circle id="Ellipse_1137-3" data-name="Ellipse 1137" cx="7" cy="7" r="7" transform="translate(126 2353)" fill="#242228"/>
        <rect id="Rectangle_3035-3" data-name="Rectangle 3035" width="49" height="9" rx="4.5" transform="translate(172 2349)" fill="#242228"/>
        <rect id="Rectangle_3036-3" data-name="Rectangle 3036" width="20" height="9" rx="4.5" transform="translate(172 2362)" fill="#242228"/>
      </g>
    </g>
    <g id="Group_6696" data-name="Group 6696" transform="translate(-44 -456)">
      <path id="bg" d="M4,0,144.768-8.868C144.79-8.846,150.489-2.374,156,4V108a4,4,0,0,1-4,4H4c-2.209,0-4-1.791-12.922-11.254L0,4A4,4,0,0,1,4,0Z" transform="translate(564 2476)" fill="#0e0b0e" opacity="0.2"/>
      <rect id="bg-2" data-name="bg" width="156" height="112" rx="6" transform="translate(554 2466)" fill="#19161a"/>
      <g id="Group_5839" data-name="Group 5839" transform="translate(184 2002)">
        <circle id="Ellipse_27" data-name="Ellipse 27" cx="1" cy="1" r="1" transform="translate(512 481)" fill="#535261"/>
        <circle id="Ellipse_27-2" data-name="Ellipse 27" cx="1" cy="1" r="1" transform="translate(512 485)" fill="#535261"/>
        <circle id="Ellipse_27-3" data-name="Ellipse 27" cx="1" cy="1" r="1" transform="translate(512 489)" fill="#535261"/>
      </g>
      <path id="bg-3" data-name="bg" d="M17,6H7A6,6,0,0,0,7,18H17A6,6,0,0,0,17,6Z" transform="translate(657 2476)" fill="#006466"/>
      <path id="ellipse" d="M7,16a4,4,0,1,1,4-4A4,4,0,0,1,7,16Z" transform="translate(667 2476)" fill="#19161a"/>
      <rect id="Rectangle_3037" data-name="Rectangle 3037" width="40" height="9" rx="4.5" transform="translate(570 2551)" fill="#242228"/>
      <rect id="Rectangle_3039" data-name="Rectangle 3039" width="51" height="9" rx="4.5" transform="translate(596 2536)" fill="#242228"/>
      <rect id="Rectangle_3040" data-name="Rectangle 3040" width="20" height="9" rx="4.5" transform="translate(570 2536)" fill="#242228"/>
      <rect id="Rectangle_3038" data-name="Rectangle 3038" width="13" height="9" rx="4.5" transform="translate(685 2551)" fill="#242228"/>
      <g id="Group_6691" data-name="Group 6691" transform="translate(342 2021.978)">
        <path id="players" d="M4.143.156a2.185,2.185,0,0,0-2.221,2.4A4.117,4.117,0,0,0,3.013,5.286c.244.646-.195.888-.286.922C1.471,6.669,0,7.507,0,8.338V8.65C0,9.781,2.143,10.9,4.143,10.9A3.919,3.919,0,0,0,5.6,10.679C4.835,10.1,4.571,8.53,4.571,7.364A2.7,2.7,0,0,1,5.221,5.6,1.62,1.62,0,0,1,5.3,5.273H5.286A4.121,4.121,0,0,0,6.377,2.559,2.2,2.2,0,0,0,4.143.156Z" transform="translate(232.001 459.867)" fill="#535261"/>
        <path id="players-2" data-name="players" d="M2.234.156a2.185,2.185,0,0,1,2.221,2.4A4.117,4.117,0,0,1,3.364,5.286c-.244.646.195.888.286.922,1.257.461,2.727,1.3,2.727,2.13V8.65c0,1.131-2.143,2.247-4.143,2.247a3.919,3.919,0,0,1-1.455-.217C1.542,10.1,1.805,8.53,1.805,7.364A2.7,2.7,0,0,0,1.156,5.6a1.62,1.62,0,0,0-.078-.325h.013A4.12,4.12,0,0,1,0,2.559,2.2,2.2,0,0,1,2.234.156Z" transform="translate(234.001 459.867)" fill="#535261"/>
        <path id="icons8_3d_rotate_5" d="M10,2a.8.8,0,1,0,.8.8A.8.8,0,0,0,10,2ZM6.741,4.145a.772.772,0,0,0-.192.044C3.861,5.157,2,7.218,2,9.6c0,2.9,2.753,5.322,6.4,5.88v1.569a.476.476,0,0,0,.812.338l2.248-2.248a.477.477,0,0,0,0-.673L9.212,12.216a.476.476,0,0,0-.812.336v1.3c-2.756-.491-4.8-2.21-4.8-4.255C3.6,7.906,5,6.435,7.047,5.7A.811.811,0,0,0,7.6,4.944.8.8,0,0,0,6.741,4.145Zm6.519,0a.8.8,0,0,0-.859.8.811.811,0,0,0,.553.756C15,6.435,16.4,7.906,16.4,9.6a3.987,3.987,0,0,1-2.136,3.269.784.784,0,0,0-.286,1.009l0,.009a.8.8,0,0,0,1.144.33A5.534,5.534,0,0,0,18,9.6c0-2.382-1.861-4.443-4.548-5.411A.773.773,0,0,0,13.259,4.145ZM10,5.2a.8.8,0,1,0,.8.8A.8.8,0,0,0,10,5.2Z" transform="translate(226 460)" fill="#535261"/>
      </g>
    </g>
    <g id="Group_6697" data-name="Group 6697" transform="translate(366 24.002)">
      <path id="Union_15" data-name="Union 15" d="M-10526.178-10561.639a7.861,7.861,0,0,1-1.056-.244l-.344-.081h.079a8.757,8.757,0,0,1-5.529-5.528v.084l-.094-.375a9.814,9.814,0,0,1-.231-1.016,110.323,110.323,0,0,1-2.615-22.163,111.115,111.115,0,0,1,2.621-22.206,8.046,8.046,0,0,1,.244-1.081l.081-.35v.078a8.742,8.742,0,0,1,5.527-5.524l-.077,0,.338-.081a7.767,7.767,0,0,1,1.078-.246,110.19,110.19,0,0,1,22.146-2.619,111.074,111.074,0,0,1,22.2,2.615,9.054,9.054,0,0,1,1.061.243l.365.088h-.084a8.754,8.754,0,0,1,5.543,5.566v-.1s.044.169.118.494c.071.26.134.529.184.8a111.43,111.43,0,0,1,2.651,22.345,109.985,109.985,0,0,1-2.666,22.319,6.745,6.745,0,0,1-.156.7c-.079.349-.129.536-.129.536v-.107a8.738,8.738,0,0,1-5.54,5.559h.082l-.369.088a7.807,7.807,0,0,1-1.038.24,111,111,0,0,1-22.225,2.62,109.75,109.75,0,0,1-22.163-2.642Z" transform="translate(10817.968 12586.995)" fill="#006466"/>
      <path id="icons8_certificate_1" d="M6.75,7A2.755,2.755,0,0,0,4,9.75v9.5A2.755,2.755,0,0,0,6.75,22H17v-.675a4.5,4.5,0,1,1,7-5.645V9.75A2.755,2.755,0,0,0,21.25,7Zm2,4h10.5a.75.75,0,1,1,0,1.5H8.75a.75.75,0,0,1,0-1.5ZM20.5,15A3.5,3.5,0,1,0,24,18.5,3.5,3.5,0,0,0,20.5,15ZM8.75,16.5h4.5a.75.75,0,1,1,0,1.5H8.75a.75.75,0,0,1,0-1.5ZM18,22.24v3.25a.5.5,0,0,0,.785.41l1.43-1a.5.5,0,0,1,.57,0l1.43,1A.5.5,0,0,0,23,25.49V22.24a4.493,4.493,0,0,1-5,0Z" transform="translate(300 1981)" fill="#fff"/>
    </g>
  </g>
</svg>
