<svg xmlns="http://www.w3.org/2000/svg" width="11.25" height="12" viewBox="0 0 11.25 12"><defs><style>.a{fill:#1d7a9e;}.b{fill:#186785;opacity:0.8;}</style></defs><g transform="translate(0 0)"><path class="a" d="M4.709,2A1.129,1.129,0,0,0,3.588,3.121v2.8h8.971V5.036a.561.561,0,0,0-.164-.4L9.92,2.164A.561.561,0,0,0,9.523,2Zm6.728,3.943L4.709,5.925Z" transform="translate(-1.309 -2)"/><path class="b" d="M1,0H11.25a0,0,0,0,1,0,0V3.5a0,0,0,0,1,0,0H1a1,1,0,0,1-1-1V1A1,1,0,0,1,1,0Z" transform="translate(0 5.23)"/><path class="a" d="M0,0H9A0,0,0,0,1,9,0V0A2,2,0,0,1,7,2H2A2,2,0,0,1,0,0V0A0,0,0,0,1,0,0Z" transform="translate(2.25 10)"/></g></svg>