<svg xmlns="http://www.w3.org/2000/svg" width="28" height="31" viewBox="0 0 28 31">
  <path id="no_subscriptions" data-name="no subscriptions" d="M17.052,2A6.223,6.223,0,0,0,10.82,8.2c0,1.62.047,3.138.094,4.65H7.7V10.525a2.337,2.337,0,0,0-4.674,0V14.4a3.107,3.107,0,0,0,3.116,3.1H11.13c.267,4.377.658,8.366,1.038,12.006L12.53,33h9.047l.359-3.494c.192-1.843.387-3.794.572-5.806h5.4a3.107,3.107,0,0,0,3.116-3.1V16.725a2.337,2.337,0,0,0-4.674,0V19.05H22.886c.233-3.341.4-6.917.4-10.85A6.223,6.223,0,0,0,17.052,2Z" transform="translate(-3.029 -2)" fill="#2d2a33"/>
</svg>
