<svg xmlns="http://www.w3.org/2000/svg" width="48" height="48" viewBox="0 0 48 48"><defs><style>.a{fill:#292329;}.b{fill:#186785;}.c{fill:#141114;}.d{fill:#ffb8b8;}</style></defs><g transform="translate(-936 -178)"><circle class="a" cx="24" cy="24" r="24" transform="translate(936 178)"/><path class="b" d="M592.4,273.974c-6.369,5.691-14.5,5.871-20.991.466a17.737,17.737,0,0,1,2.107-3.957c2.617-3.669,6.3-5.439,9.985-4.792s6.939,3.638,8.822,8.1C592.347,273.849,592.374,273.911,592.4,273.974Z" transform="translate(378.757 -52.686)"/><circle class="c" cx="13.825" cy="13.825" r="13.825" transform="translate(945.857 184.379)"/><circle class="d" cx="10.29" cy="10.29" r="10.29" transform="translate(945.651 205.72) rotate(-61.337)"/><path class="c" d="M582.827,189.811a14,14,0,0,0,8,2.472,8.576,8.576,0,0,1-3.4,1.4,28.22,28.22,0,0,0,11.527.065,7.46,7.46,0,0,0,2.413-.829,3.054,3.054,0,0,0,1.489-1.992c.253-1.445-.873-2.757-2.043-3.642a15.068,15.068,0,0,0-12.662-2.53,6.934,6.934,0,0,0-3.75,2.119,3.416,3.416,0,0,0-.316,4.057Z" transform="translate(367.141 6.534)"/></g></svg>