<svg xmlns="http://www.w3.org/2000/svg" width="10.5" height="12" viewBox="0 0 10.5 12"><defs><style>.a{fill:#5ba688;}</style></defs><path class="a" d="M7.776,1.283,3.693,2.995A1.1,1.1,0,0,0,3,4V6.586a6.942,6.942,0,0,0,5.25,6.6,6.942,6.942,0,0,0,5.25-6.6V4a1.1,1.1,0,0,0-.693-1.006L8.724,1.283A1.229,1.229,0,0,0,7.776,1.283ZM7.254,9.176,5.638,7.652a.529.529,0,0,1,0-.778h0a.609.609,0,0,1,.825,0l1.2,1.135,2.966-2.8a.609.609,0,0,1,.825,0h0a.529.529,0,0,1,0,.778L8.079,9.176A.609.609,0,0,1,7.254,9.176Z" transform="translate(-3 -1.189)"/></svg>